<svg width="835" height="798" viewBox="0 0 835 798" fill="none" xmlns="http://www.w3.org/2000/svg">
<path fill-rule="evenodd" clip-rule="evenodd" d="M400.79 10.3883C484.187 13.9927 568.205 11.4938 641.663 51.1127C722.742 94.8417 810.928 152.831 831.351 242.607C851.513 331.238 783.43 412.224 742.246 493.265C707.87 560.912 669.034 622.913 612.406 673.451C549.816 729.309 484.706 797.447 400.79 797.997C316.752 798.547 254.355 726.655 187.148 676.237C121.171 626.741 43.418 585.013 14.1463 507.936C-15.7579 429.194 7.70123 343.224 29.8133 261.953C53.0457 176.564 71.0114 79.3047 144.286 29.6159C217.013 -19.7015 312.979 6.59306 400.79 10.3883Z" fill="#F250A9" fill-opacity="0.5"/>
</svg>
