<svg id="Calque_1" data-name="Calque 1" xmlns="http://www.w3.org/2000/svg" xmlns:xlink="http://www.w3.org/1999/xlink" viewBox="0 0 1440 560"><defs><style>.cls-1{fill:#00a9ce;}.cls-2{fill:#ffca28;}.cls-3{fill:#ffeb3b;}.cls-4{fill:url(#Dégradé_sans_nom_485);}.cls-5{fill:#003b49;}.cls-6{fill:url(#Dégradé_sans_nom_485-2);}.cls-7{fill:#e9fbff;}</style><linearGradient id="Dégradé_sans_nom_485" x1="336.25" y1="266.75" x2="80.01" y2="266.75" gradientUnits="userSpaceOnUse"><stop offset="0" stop-color="#ffa3f0"/><stop offset="1" stop-color="#9f5dee"/></linearGradient><linearGradient id="Dégradé_sans_nom_485-2" x1="205.75" y1="301.59" x2="80.2" y2="301.59" xlink:href="#Dégradé_sans_nom_485"/></defs><path class="cls-1" d="M422.38,250.19a169.53,169.53,0,0,1-49.85,120.35c-.52.52-1,1-1.56,1.54l-.11.1-7.52,6.91-.14.1L256.27,477.26C249.89,483.1,239,479,239,470.7V420a168.62,168.62,0,0,1-65.26-17.74l-.43-.21a170.34,170.34,0,0,1-55.52-44.95c-.46-.56-.9-1.12-1.35-1.69A169.23,169.23,0,0,1,81,268.61q-.52-5.13-.77-10.37c-.13-2.66-.19-5.35-.19-8.05a169.32,169.32,0,0,1,10.68-59.45c.18-.49.36-1,.55-1.46A170.29,170.29,0,0,1,250.2,80h2A170.18,170.18,0,0,1,422.38,250.19Z"/><rect class="cls-2" x="303.13" y="230.17" width="66.23" height="39.74" rx="19.87" transform="translate(744.62 156.15) rotate(130.42)"/><rect class="cls-3" x="301.68" y="211.49" width="66.23" height="39.74" rx="19.87" transform="translate(439.71 624.56) rotate(-139.58)"/><path class="cls-4" d="M336.25,243.49a112.31,112.31,0,0,1-56.2,97.41L173.74,402.28l-.43-.21a170.34,170.34,0,0,1-55.52-44.95c-.46-.56-.9-1.12-1.35-1.69A169.23,169.23,0,0,1,81,268.61q-.52-5.13-.77-10.37c-.13-2.66-.19-5.35-.19-8.05a169.32,169.32,0,0,1,10.68-59.45l77-44.45a112.38,112.38,0,0,1,168.56,97.2Z"/><rect class="cls-5" x="248.44" y="203.01" width="47.26" height="33.99" rx="16.99" transform="translate(385.75 -110.91) rotate(70)"/><path class="cls-6" d="M205.75,298.07a52,52,0,0,1-42.94,51.11l-45,7.94c-.46-.56-.9-1.12-1.35-1.69A169.23,169.23,0,0,1,81,268.61q-.52-5.13-.77-10.37l64.57-11.39a52,52,0,0,1,61,51.22Z"/><path class="cls-7" d="M503,133.45a7.38,7.38,0,0,1,1.88-5.06,6.7,6.7,0,0,1,5.31-2.13h33.15a7.6,7.6,0,0,1,2.53.5,7.89,7.89,0,0,1,2.54,1.46,10.28,10.28,0,0,1,2,2.29,5.46,5.46,0,0,1,.81,2.94v97l91.63-99.14q3.27-5.07,7.19-5.07h46.71c2.94,0,4.41.66,4.41,2,0,.88-.65,2-2,3.44L612.92,232.1,713.54,362.28Q716,365.55,716,367c0,1.2-1.15,1.79-3.43,1.79H662.9q-3.92,0-7.18-5.06L579,265.91l-27.77,28.75v67q0,7.19-7.84,7.18H510.19q-7.2,0-7.19-7.18Z"/><path class="cls-7" d="M744.24,99q0-9.83,9.64-9.83h27.44a10.71,10.71,0,0,1,7.35,2.46q2.77,2.46,2.77,7.37v24.43a11.44,11.44,0,0,1-2.61,7.13,8.77,8.77,0,0,1-7.35,3.36H754q-9.79,0-9.8-10.49Zm0,72.32a10.55,10.55,0,0,1,2.45-7.1c1.63-1.9,4-2.86,7.19-2.86H781a10.1,10.1,0,0,1,3.68.74,10.37,10.37,0,0,1,3.34,2.12,12.87,12.87,0,0,1,2.45,3.18,8,8,0,0,1,1,3.92V359q0,9.81-10.29,9.8H754q-9.79,0-9.8-9.8Z"/><path class="cls-7" d="M828.19,174.61c-.22-.87-.41-1.63-.57-2.29s-.3-1.36-.41-2.12a13.85,13.85,0,0,1-.16-2,6.21,6.21,0,0,1,2.2-5q2.21-1.87,6.62-1.88h29.4q7.68,0,10.29,7.51,2.94,8.51,7.1,20.09t8.82,24.5q4.66,12.92,9.56,26.06t9.23,24.82q4.32,11.68,7.84,20.91t5.47,14q7.35-20.73,18.78-53.08t27.93-77.42a10,10,0,0,1,10.46-7.35h28.42c3.37,0,5.68.55,6.94,1.63a5.38,5.38,0,0,1,1.88,4.25,16.83,16.83,0,0,1-.41,3.27c-.28,1.3-.52,2.28-.74,2.94l-17,41.32q3.25,8.18,7.59,18.21t9.15,21.07q4.81,11,9.63,22.46t9.07,22.21q2.94-7.83,6.94-18.13t8.33-21.88q4.32-11.6,9-23.85t9.15-24.09q4.48-11.83,8.58-22.62t7.34-19.44a12.19,12.19,0,0,1,3.76-5.63,9.79,9.79,0,0,1,6-1.72h27.12a14.91,14.91,0,0,1,7.18,1.39c1.64.93,2.45,2.53,2.45,4.82a19.6,19.6,0,0,1-.32,3.1,15,15,0,0,1-.66,2.78L1053.1,362.28c-.43.76-.9,1.53-1.39,2.29a8.81,8.81,0,0,1-2,2.12,9.19,9.19,0,0,1-3.1,1.55,15.23,15.23,0,0,1-4.49.57h-14.05c-3.81,0-6.42-.7-7.84-2.12a19.4,19.4,0,0,1-3.43-4.57q-9.63-23.36-19.11-46.31t-18.94-46.3l-37.57,92.77a26.17,26.17,0,0,1-3.19,4.41c-1.25,1.42-3.56,2.12-6.94,2.12h-15c-3.92,0-6.57-.68-7.93-2a13.47,13.47,0,0,1-3-4.49Z"/><path class="cls-7" d="M1329.13,346a116.72,116.72,0,0,1-31.44,19.27,97.66,97.66,0,0,1-37.49,7,106.4,106.4,0,0,1-41.81-8.33A109.38,109.38,0,0,1,1160.16,307a101.82,101.82,0,0,1-8.74-42.06,109.61,109.61,0,0,1,13.81-53.49,106.25,106.25,0,0,1,16.08-21.72A101.88,101.88,0,0,1,1227.78,162a106.27,106.27,0,0,1,28.83-3.84,100.43,100.43,0,0,1,24.5,3,107.32,107.32,0,0,1,23,8.57,108.68,108.68,0,0,1,20.33,13.48,97.66,97.66,0,0,1,16.66,17.88,96.62,96.62,0,0,1,14.38,29.56,126.78,126.78,0,0,1,4.57,35.12,64.28,64.28,0,0,1-.41,7.92,9.77,9.77,0,0,1-2,5.15,9.46,9.46,0,0,1-4.9,2.86,36.26,36.26,0,0,1-9.15.89H1198.63a55.31,55.31,0,0,0,8.08,20.83,62.58,62.58,0,0,0,14.13,15.35,59.69,59.69,0,0,0,17.8,9.48,61.23,61.23,0,0,0,19.28,3.18,66.52,66.52,0,0,0,14.13-1.47A73.61,73.61,0,0,0,1284.7,326a70.82,70.82,0,0,0,10.87-5.63,64.25,64.25,0,0,0,8.73-6.62c0-.11.06-.16.17-.16a22.52,22.52,0,0,1,3.75-2.86,6.7,6.7,0,0,1,7.11-.08,11.8,11.8,0,0,1,3.67,3.26q4.41,5.4,7.52,9c2.06,2.39,3.75,4.41,5.06,6a24.83,24.83,0,0,1,2.86,4.25,8,8,0,0,1,.9,3.59Q1335.34,341.38,1329.13,346Zm-72.52-147.33a51.94,51.94,0,0,0-18.78,3.51,63.1,63.1,0,0,0-16.74,9.56,65.34,65.34,0,0,0-13.23,14.21,57.8,57.8,0,0,0-8.25,17.64h115.64a63.36,63.36,0,0,0-7.92-18.21,58.12,58.12,0,0,0-12.83-14.21,56.41,56.41,0,0,0-17.15-9.23A64.12,64.12,0,0,0,1256.61,198.62Z"/><path class="cls-7" d="M503,470.06V426.38h4v40.1h20.82v3.58Z"/><path class="cls-7" d="M547.15,470.06H543l15.89-43.68h4.27L579,470.06h-4.18l-13.7-38.5h-.29Zm3-16.74h21.67v3.58H550.16Z"/><path class="cls-7" d="M618.54,470.06V426.38h14.1a15.45,15.45,0,0,1,7.77,1.78,11.73,11.73,0,0,1,4.72,4.83,14.62,14.62,0,0,1,1.59,6.87,14.83,14.83,0,0,1-1.58,6.88,11.71,11.71,0,0,1-4.7,4.84,15.34,15.34,0,0,1-7.74,1.78H621.61v-3.58h11a11.38,11.38,0,0,0,5.69-1.29,8.27,8.27,0,0,0,3.38-3.53,12.17,12.17,0,0,0,0-10.2,8.27,8.27,0,0,0-3.39-3.52,11.65,11.65,0,0,0-5.75-1.28h-10v40.1Z"/><path class="cls-7" d="M663.67,470.06V426.38h4v40.1h20.82v3.58Z"/><path class="cls-7" d="M734.14,426.38h4V455.3a15.2,15.2,0,0,1-2.09,8,14.88,14.88,0,0,1-5.81,5.53,19.51,19.51,0,0,1-17.29,0,14.88,14.88,0,0,1-5.82-5.52,15.14,15.14,0,0,1-2.09-8V426.38h4V455a12.31,12.31,0,0,0,1.55,6.19A11.09,11.09,0,0,0,715,465.5a14.85,14.85,0,0,0,13.25,0,11,11,0,0,0,4.39-4.28,12.31,12.31,0,0,0,1.54-6.19Z"/><path class="cls-7" d="M757.31,426.38h4.6l15.85,38.05h.39L794,426.38h4.6v43.68h-3.75V434.8h-.34l-14.74,35.26h-3.63L761.4,434.8h-.34v35.26h-3.75Z"/><path class="cls-7" d="M817.78,470.06V426.38h25.34V430H821.76v16.45h20V450h-20v16.49h21.78v3.58Z"/><path class="cls-7" d="M898.25,470.06h-12.8V426.38H899a20.85,20.85,0,0,1,10.69,2.6,17.06,17.06,0,0,1,6.82,7.47,29.9,29.9,0,0,1,0,23.45,17.2,17.2,0,0,1-7,7.54A22.32,22.32,0,0,1,898.25,470.06Zm-8.81-3.58H898a18.39,18.39,0,0,0,9.42-2.22,13.92,13.92,0,0,0,5.7-6.33,23.4,23.4,0,0,0,1.9-9.82,23.73,23.73,0,0,0-1.87-9.72,13.64,13.64,0,0,0-5.46-6.25,17.05,17.05,0,0,0-8.93-2.18h-9.34Z"/><path class="cls-7" d="M936.11,470.06V426.38h25.34V430H940.1v16.45h20V450h-20v16.49h21.78v3.58Z"/><path class="cls-7" d="M1003.85,426.38l13.65,38.5h.38l13.65-38.5h4.19l-15.9,43.68h-4.26l-15.89-43.68Z"/><path class="cls-7" d="M1084.54,448.22a27.07,27.07,0,0,1-2.43,11.87,18.69,18.69,0,0,1-6.69,7.81,18.71,18.71,0,0,1-19.56,0,18.67,18.67,0,0,1-6.68-7.81,30.32,30.32,0,0,1,0-23.74,18.81,18.81,0,0,1,6.69-7.81,18.69,18.69,0,0,1,19.55,0,18.81,18.81,0,0,1,6.69,7.81A27.07,27.07,0,0,1,1084.54,448.22Zm-3.88,0a23.56,23.56,0,0,0-2-10.06,15,15,0,0,0-5.35-6.41,14.48,14.48,0,0,0-15.38,0,15.14,15.14,0,0,0-5.36,6.4,23.4,23.4,0,0,0-2,10.07,23.64,23.64,0,0,0,2,10,15.17,15.17,0,0,0,5.36,6.41,14.45,14.45,0,0,0,15.41,0,15.06,15.06,0,0,0,5.37-6.41A23.57,23.57,0,0,0,1080.66,448.22Z"/><path class="cls-7" d="M1125.47,437.3a7.94,7.94,0,0,0-3.22-5.8,11.59,11.59,0,0,0-7.19-2.16,12.93,12.93,0,0,0-5.37,1.05,8.74,8.74,0,0,0-3.62,2.89,7,7,0,0,0-1.31,4.19,6.07,6.07,0,0,0,.74,3,7.14,7.14,0,0,0,2,2.23,13.93,13.93,0,0,0,2.81,1.59,27.2,27.2,0,0,0,3.13,1.11l4.61,1.32a32.08,32.08,0,0,1,4.18,1.47,17.6,17.6,0,0,1,3.83,2.25,10.47,10.47,0,0,1,2.79,3.31,9.63,9.63,0,0,1,1.06,4.68,11.29,11.29,0,0,1-1.82,6.29,12.37,12.37,0,0,1-5.2,4.43,21,21,0,0,1-15.87.15,12.5,12.5,0,0,1-5.16-4.11,11.61,11.61,0,0,1-2.12-6.08h4.1a7.62,7.62,0,0,0,1.71,4.38,9.37,9.37,0,0,0,3.88,2.72,14.79,14.79,0,0,0,5.33.92,14.49,14.49,0,0,0,5.82-1.1,9.51,9.51,0,0,0,4-3.07,7.47,7.47,0,0,0,1.47-4.59,6,6,0,0,0-1.16-3.73,8.84,8.84,0,0,0-3.21-2.52,28.55,28.55,0,0,0-4.76-1.82l-5.23-1.53a19.43,19.43,0,0,1-8-4.25,9.13,9.13,0,0,1-2.83-6.91,10.48,10.48,0,0,1,1.88-6.2,12.77,12.77,0,0,1,5.12-4.18,17.09,17.09,0,0,1,7.27-1.5,16.68,16.68,0,0,1,7.21,1.49,12.63,12.63,0,0,1,5,4.11,10.82,10.82,0,0,1,2,5.94Z"/><path class="cls-7" d="M1175.57,426.38v43.68h-4V426.38Z"/><path class="cls-7" d="M1207.54,470.06h-12.8V426.38h13.57A20.85,20.85,0,0,1,1219,429a17.06,17.06,0,0,1,6.82,7.47,29.9,29.9,0,0,1,0,23.45,17.2,17.2,0,0,1-7,7.54A22.32,22.32,0,0,1,1207.54,470.06Zm-8.81-3.58h8.57a18.41,18.41,0,0,0,9.43-2.22,13.92,13.92,0,0,0,5.7-6.33,23.4,23.4,0,0,0,1.9-9.82,23.73,23.73,0,0,0-1.87-9.72,13.64,13.64,0,0,0-5.46-6.25,17.05,17.05,0,0,0-8.93-2.18h-9.34Z"/><path class="cls-7" d="M1245.4,470.06V426.38h25.34V430h-21.35v16.45h20V450h-20v16.49h21.78v3.58Zm10.9-48.23,5.46-9.68h4.5l-6.55,9.68Z"/><path class="cls-7" d="M1288.61,470.06V426.38H1314V430H1292.6v16.45h20V450h-20v16.49h21.78v3.58Z"/><path class="cls-7" d="M1355.54,437.3a7.9,7.9,0,0,0-3.22-5.8,11.59,11.59,0,0,0-7.19-2.16,12.85,12.85,0,0,0-5.36,1.05,8.77,8.77,0,0,0-3.63,2.89,7.09,7.09,0,0,0-1.31,4.19,6,6,0,0,0,.75,3,7.11,7.11,0,0,0,2,2.23,14.29,14.29,0,0,0,2.82,1.59,26.4,26.4,0,0,0,3.12,1.11l4.61,1.32a31.57,31.57,0,0,1,4.18,1.47,17.6,17.6,0,0,1,3.83,2.25,10.47,10.47,0,0,1,2.79,3.31,9.63,9.63,0,0,1,1.06,4.68,11.29,11.29,0,0,1-1.81,6.29,12.46,12.46,0,0,1-5.21,4.43,21,21,0,0,1-15.87.15,12.5,12.5,0,0,1-5.16-4.11,11.52,11.52,0,0,1-2.11-6.08h4.09a7.69,7.69,0,0,0,1.71,4.38,9.44,9.44,0,0,0,3.88,2.72,14.83,14.83,0,0,0,5.33.92,14.45,14.45,0,0,0,5.82-1.1,9.54,9.54,0,0,0,4-3.07,7.53,7.53,0,0,0,1.46-4.59,6,6,0,0,0-1.15-3.73,9,9,0,0,0-3.21-2.52,28.68,28.68,0,0,0-4.77-1.82l-5.23-1.53a19.45,19.45,0,0,1-8-4.25,9.1,9.1,0,0,1-2.84-6.91,10.49,10.49,0,0,1,1.89-6.2,12.7,12.7,0,0,1,5.12-4.18,17,17,0,0,1,7.26-1.5,16.65,16.65,0,0,1,7.21,1.49,12.63,12.63,0,0,1,5,4.11,10.74,10.74,0,0,1,2,5.94Z"/></svg>