<svg width="16" height="16" viewBox="0 0 16 16" fill="none" xmlns="http://www.w3.org/2000/svg">
<path fill-rule="evenodd" clip-rule="evenodd" d="M6.66666 1.33334C6.66679 1.19431 6.62344 1.05871 6.54269 0.945532C6.46193 0.832354 6.34781 0.747255 6.2163 0.702144C6.08479 0.657033 5.94246 0.654168 5.80924 0.693949C5.67602 0.733731 5.55857 0.814169 5.47333 0.924006L0.806661 6.92401C0.715625 7.04103 0.666199 7.18507 0.666199 7.33334C0.666199 7.48161 0.715625 7.62564 0.806661 7.74267L5.47333 13.7427C5.55857 13.8525 5.67602 13.9329 5.80924 13.9727C5.94246 14.0125 6.08479 14.0096 6.2163 13.9645C6.34781 13.9194 6.46193 13.8343 6.54269 13.7211C6.62344 13.608 6.66679 13.4724 6.66666 13.3333V10.6733C10.2527 10.748 11.9753 11.4287 12.8407 12.1687C13.6633 12.872 13.814 13.6993 13.9707 14.566L14.0113 14.7893C14.0412 14.9491 14.1285 15.0925 14.2568 15.1925C14.385 15.2924 14.5453 15.3421 14.7076 15.3321C14.8699 15.3221 15.0229 15.2531 15.1379 15.1382C15.2529 15.0233 15.3219 14.8703 15.332 14.708C15.446 12.876 15.2747 10.2213 13.9807 8.00067C12.7247 5.84534 10.4627 4.18801 6.66666 4.01467V1.33334Z" fill="#F4F5F6"/>
</svg>
