<svg width="30" height="31" viewBox="0 0 30 31" fill="none" xmlns="http://www.w3.org/2000/svg">
<path d="M29.9688 1.75C29.9688 1.29416 29.7877 0.856989 29.4653 0.534661C29.143 0.212332 28.7058 0.03125 28.25 0.03125C27.7942 0.03125 27.357 0.212332 27.0347 0.534661C26.7123 0.856989 26.5312 1.29416 26.5312 1.75V12.915L4.98844 0.41625C3.13219 -0.65625 0.75 0.643125 0.75 2.80875V28.1913C0.75 30.3569 3.12875 31.6631 4.98844 30.5872L26.5312 18.0884V29.25C26.5312 29.7058 26.7123 30.143 27.0347 30.4653C27.357 30.7877 27.7942 30.9688 28.25 30.9688C28.7058 30.9688 29.143 30.7877 29.4653 30.4653C29.7877 30.143 29.9688 29.7058 29.9688 29.25V1.75Z" fill="#F4F5F6"/>
</svg>
