<svg width="1801" height="1797" viewBox="0 0 1801 1797" fill="none" xmlns="http://www.w3.org/2000/svg">
<path fill-rule="evenodd" clip-rule="evenodd" d="M1314.53 431.997C1410.23 515.07 1444.98 642.61 1477.81 765.057C1512.64 894.951 1557.42 1031.89 1509.05 1157.48C1459.56 1286.01 1338.31 1368.7 1218.91 1437.37C1099.33 1506.14 967.55 1563.71 830.651 1547.61C694.406 1531.6 565.432 1458.68 480.997 1350.63C403.356 1251.28 422.024 1114.82 395.985 991.393C369.838 867.455 292.859 748.595 328.316 626.911C365.752 498.434 467.155 391.457 587.72 333.371C704.055 277.323 837.346 302.712 965.213 320.063C1089.44 336.92 1219.91 349.849 1314.53 431.997Z" fill="#070B59" fill-opacity="0.92"/>
</svg>
